<svg width="24" height="24" viewBox="0 0 24 24" fill="none" xmlns="http://www.w3.org/2000/svg">
  <path fill-rule="evenodd" clip-rule="evenodd" d="M19.5917 14.1634C17.6833 17.1652 14.9417 18.8996 12 18.8996C9.05832 18.8996 6.31666 17.1652 4.40833 14.1634C3.65833 12.9877 3.65833 11.0115 4.40833 9.8358C6.31666 6.83399 9.05832 5.09961 12 5.09961C14.9417 5.09961 17.6833 6.83399 19.5917 9.8358C20.3417 11.0115 20.3417 12.9877 19.5917 14.1634ZM14 12C14 13.1069 13.1069 14 12 14C10.8931 14 10 13.1069 10 12C10 10.8931 10.8931 10 12 10C13.1069 10 14 10.8931 14 12ZM15 12C15 13.6592 13.6592 15 12 15C10.3408 15 9 13.6592 9 12C9 10.3408 10.3408 9 12 9C13.6592 9 15 10.3408 15 12Z" fill="#808080"/>
</svg>
