<svg width="24" height="24" viewBox="0 0 24 24" fill="none" xmlns="http://www.w3.org/2000/svg">
  <path fill-rule="evenodd" clip-rule="evenodd" d="M7.5 8.5C7.5 6.01472 9.51472 4 12 4C14.4853 4 16.5 6.01472 16.5 8.5V10.0104C16.0608 10.0003 15.5642 10.0003 15 10.0003H9C8.43583 10.0003 7.93917 10.0003 7.5 10.0104V8.5ZM6.5 10.0638V8.5C6.5 5.46243 8.96243 3 12 3C15.0376 3 17.5 5.46243 17.5 8.5V10.0638C18.3126 10.1437 18.8595 10.3243 19.2678 10.7326C20 11.4648 20 12.6433 20 15.0003C20 17.3573 20 18.5359 19.2678 19.2681C18.5355 20.0003 17.357 20.0003 15 20.0003H9C6.64298 20.0003 5.46447 20.0003 4.73223 19.2681C4 18.5359 4 17.3573 4 15.0003C4 12.6433 4 11.4648 4.73223 10.7326C5.14047 10.3243 5.68743 10.1437 6.5 10.0638ZM12.5 13.5C12.5 13.2239 12.2761 13 12 13C11.7239 13 11.5 13.2239 11.5 13.5V16.5C11.5 16.7761 11.7239 17 12 17C12.2761 17 12.5 16.7761 12.5 16.5V13.5Z" fill="#808080"/>
</svg>
