<svg width="20" height="20" viewBox="0 0 20 20" fill="none" xmlns="http://www.w3.org/2000/svg">
  <path fill-rule="evenodd" clip-rule="evenodd" d="M16.8536 3.14645C17.0488 3.34171 17.0488 3.65829 16.8536 3.85355L3.85355 16.8536C3.65829 17.0488 3.34171 17.0488 3.14645 16.8536C2.95118 16.6583 2.95118 16.3417 3.14645 16.1464L16.1464 3.14645C16.3417 2.95118 16.6583 2.95118 16.8536 3.14645Z" fill="#808080"/>
  <path d="M13.7798 4.10387C12.5981 3.4484 11.3192 3.09961 9.99999 3.09961C7.05832 3.09961 4.31666 4.83399 2.40833 7.8358C1.65833 9.01151 1.65833 10.9877 2.40833 12.1634C2.84805 12.8551 3.33202 13.4795 3.85248 14.0309L7.10233 10.7811C7.03558 10.5321 7 10.2703 7 10C7 8.34078 8.34078 7 10 7C10.2703 7 10.5322 7.03559 10.7812 7.10235L13.7798 4.10387Z" fill="#808080"/>
  <path d="M8.27796 11.0197L11.0198 8.27799C11.6072 8.62586 12 9.2659 12 10C12 11.1069 11.1069 12 10 12C9.26588 12 8.62582 11.6072 8.27796 11.0197Z" fill="#808080"/>
  <path d="M7.55579 11.7419C8.09932 12.5039 8.99075 13 10 13C11.6592 13 13 11.6592 13 10C13 8.99078 12.504 8.09937 11.7419 7.55584L14.6461 4.65178C15.7531 5.44182 16.7529 6.51638 17.5917 7.8358C18.3417 9.01151 18.3417 10.9877 17.5917 12.1634C15.6833 15.1652 12.9417 16.8996 9.99999 16.8996C8.03913 16.8996 6.16713 16.129 4.57159 14.726L7.55579 11.7419Z" fill="#808080"/>
</svg>
